<svg width="512" height="512" viewBox="0 0 512 512" fill="none" xmlns="http://www.w3.org/2000/svg">
<g clip-path="url(#clip0_4_2)">
<path d="M305 433.75C305 440.185 303.733 446.557 301.27 452.501C298.808 458.446 295.198 463.848 290.648 468.398C286.098 472.948 280.696 476.558 274.751 479.02C268.807 481.483 262.435 482.75 256 482.75C249.565 482.75 243.193 481.483 237.249 479.02C231.304 476.558 225.902 472.948 221.352 468.398C216.802 463.848 213.192 458.446 210.73 452.501C208.267 446.557 207 440.185 207 433.75L256 433.75H305Z" fill="#6A838A"/>
<circle cx="256" cy="213.107" r="147.214" fill="#6A838A"/>
<circle cx="256" cy="65.8929" r="40.8929" fill="#6A838A"/>
<rect x="108.786" y="213.107" width="294.429" height="114.5" fill="#6A838A"/>
<path d="M238.394 82.2093C245.947 68.1925 266.053 68.1925 273.606 82.2093L438.43 388.084C445.61 401.409 435.96 417.571 420.824 417.571H91.1763C76.04 417.571 66.3896 401.409 73.5698 388.084L238.394 82.2093Z" fill="#6A838A"/>
<path d="M429.386 172.214C413.029 111.693 380.314 74.0714 332.879 49.5357" stroke="#6A838A" stroke-width="9" stroke-linecap="round"/>
<path d="M82.6143 172.214C98.9714 111.693 131.686 74.0714 179.121 49.5357" stroke="#6A838A" stroke-width="9" stroke-linecap="round"/>
</g>
<defs>
<clipPath id="clip0_4_2">
<rect width="512" height="512" rx="60" fill="white"/>
</clipPath>
</defs>
</svg>
