<svg xmlns="http://www.w3.org/2000/svg" width="512" height="512"><rect width="100%" height="100%" fill="white" /><path d="M 85.332031 405.332031 L 85.332031 373.332031 L 130.132812 373.332031 L 130.132812 210.132812 C 130.132812 180.976562 138.933594 154.578125 156.535156 130.933594 C 174.132812 107.289062 197.332031 92.445312 226.132812 86.398438 L 226.132812 70.933594 C 226.132812 62.753906 229.066406 56 234.933594 50.667969 C 240.800781 45.332031 247.820312 42.667969 256 42.667969 C 264.179688 42.667969 271.199219 45.332031 277.066406 50.667969 C 282.933594 56 285.867188 62.753906 285.867188 70.933594 L 285.867188 86.398438 C 314.667969 92.445312 337.957031 107.289062 355.734375 130.933594 C 373.511719 154.578125 382.398438 180.976562 382.398438 210.132812 L 382.398438 373.332031 L 426.667969 373.332031 L 426.667969 405.332031 Z M 256 248 Z M 256 469.332031 C 244.621094 469.332031 234.667969 465.15625 226.132812 456.800781 C 217.601562 448.445312 213.332031 438.398438 213.332031 426.667969 L 298.667969 426.667969 C 298.667969 438.398438 294.488281 448.445312 286.132812 456.800781 C 277.777344 465.15625 267.734375 469.332031 256 469.332031 Z M 162.132812 373.332031 L 350.398438 373.332031 L 350.398438 210.132812 C 350.398438 183.464844 341.421875 160.976562 323.464844 142.667969 C 305.511719 124.355469 283.199219 115.199219 256.535156 115.199219 C 230.222656 115.199219 207.910156 124.355469 189.601562 142.667969 C 171.289062 160.976562 162.132812 183.464844 162.132812 210.132812 Z M 162.132812 373.332031 "/></svg>
